<svg xmlns="http://www.w3.org/2000/svg" viewBox="0 0 32 32">
  <!-- Onion layers — concentric arcs with negative space, single color -->
  <circle cx="16" cy="16" r="15" fill="#7a3a6e"/>
  <!-- Negative-space concentric arcs: onion/depth layers -->
  <path d="M16 8 C11 8 7 12 7 17 C7 22 11 26 16 26 C21 26 25 22 25 17 C25 12 21 8 16 8Z" fill="#f8f4ec"/>
  <path d="M16 11 C12.5 11 10 14 10 17.5 C10 21 12.5 24 16 24 C19.5 24 22 21 22 17.5 C22 14 19.5 11 16 11Z" fill="#7a3a6e"/>
  <path d="M16 14 C14 14 12.5 15.5 12.5 17.5 C12.5 19.5 14 21.5 16 21.5 C18 21.5 19.5 19.5 19.5 17.5 C19.5 15.5 18 14 16 14Z" fill="#f8f4ec"/>
  <circle cx="16" cy="17.5" r="2" fill="#7a3a6e"/>
</svg>
